<svg xmlns="http://www.w3.org/2000/svg" style="display:none"><defs><style>.rb4-logo-1{fill:#45c1cb}.rb4-logo-2{fill:#63469b}</style><style>.cls-1{fill:#59c2cc}</style><style>.cls-1{fill:#d9d749}</style><style>.cls-1{fill:#111}</style><style>.cls-1{fill:#ec6133}</style><style>.cls-1{fill:#62469c}</style></defs><symbol id="icon-bars" viewBox="0 0 24 28"><path d="M24 21v2q0 .406-.297.703T23 24H1q-.406 0-.703-.297T0 23v-2q0-.406.297-.703T1 20h22q.406 0 .703.297T24 21zm0-8v2q0 .406-.297.703T23 16H1q-.406 0-.703-.297T0 15v-2q0-.406.297-.703T1 12h22q.406 0 .703.297T24 13zm0-8v2q0 .406-.297.703T23 8H1q-.406 0-.703-.297T0 7V5q0-.406.297-.703T1 4h22q.406 0 .703.297T24 5z"/></symbol><symbol id="icon-close" viewBox="0 0 22 28"><path d="M20.281 20.656q0 .625-.438 1.062l-2.125 2.125q-.438.438-1.062.438t-1.062-.438L11 19.249l-4.594 4.594q-.438.438-1.062.438t-1.062-.438l-2.125-2.125q-.438-.438-.438-1.062t.438-1.062L6.751 15l-4.594-4.594q-.438-.438-.438-1.062t.438-1.062l2.125-2.125q.438-.438 1.062-.438t1.062.438L11 10.751l4.594-4.594q.438-.438 1.062-.438t1.062.438l2.125 2.125q.438.438.438 1.062t-.438 1.062L15.249 15l4.594 4.594q.438.438.438 1.062z"/></symbol><symbol id="icon-facebook-square" viewBox="0 0 24 28"><path d="M19.5 2q1.859 0 3.18 1.32T24 6.5v15q0 1.859-1.32 3.18T19.5 26h-2.938v-9.297h3.109l.469-3.625h-3.578v-2.312q0-.875.367-1.313t1.43-.438l1.906-.016V5.765q-.984-.141-2.781-.141-2.125 0-3.398 1.25t-1.273 3.531v2.672H9.688v3.625h3.125v9.297H4.5q-1.859 0-3.18-1.32T0 21.499v-15q0-1.859 1.32-3.18t3.18-1.32h15z"/></symbol><symbol id="icon-instagram-square" viewBox="0 0 27 32"><path d="M18.286 16q0-1.893-1.339-3.232t-3.232-1.339-3.232 1.339T9.144 16t1.339 3.232 3.232 1.339 3.232-1.339T18.286 16zm2.464 0q0 2.929-2.054 4.982t-4.982 2.054-4.982-2.054T6.678 16t2.054-4.982 4.982-2.054 4.982 2.054T20.75 16zm1.929-7.321q0 .679-.482 1.161t-1.161.482-1.161-.482-.482-1.161.482-1.161 1.161-.482 1.161.482.482 1.161zM13.714 4.75l-1.366-.009q-1.241-.009-1.884 0t-1.723.054-1.839.179-1.277.33q-.893.357-1.571 1.036T3.018 7.911q-.196.518-.33 1.277t-.179 1.839-.054 1.723 0 1.884T2.464 16t-.009 1.366 0 1.884.054 1.723.179 1.839.33 1.277q.357.893 1.036 1.571t1.571 1.036q.518.196 1.277.33t1.839.179 1.723.054 1.884 0 1.366-.009 1.366.009 1.884 0 1.723-.054 1.839-.179 1.277-.33q.893-.357 1.571-1.036t1.036-1.571q.196-.518.33-1.277t.179-1.839.054-1.723 0-1.884T24.964 16t.009-1.366 0-1.884-.054-1.723-.179-1.839-.33-1.277q-.357-.893-1.036-1.571t-1.571-1.036q-.518-.196-1.277-.33t-1.839-.179-1.723-.054-1.884 0-1.366.009zM27.429 16q0 4.089-.089 5.661-.179 3.714-2.214 5.75t-5.75 2.214q-1.571.089-5.661.089t-5.661-.089q-3.714-.179-5.75-2.214T.09 21.661Q.001 20.09.001 16t.089-5.661q.179-3.714 2.214-5.75t5.75-2.214q1.571-.089 5.661-.089t5.661.089q3.714.179 5.75 2.214t2.214 5.75q.089 1.571.089 5.661z"/></symbol><symbol id="icon-logo" viewBox="0 0 516.88 247.21"><title>Artboard 1</title><path class="rb4-logo-1" d="M177.18 110.8c0 15.2-13.3 27.5-29.7 27.5s-29.7-12.3-29.7-27.5 13.3-27.5 29.7-27.5 29.7 12.3 29.7 27.5"/><path class="rb4-logo-2" d="M11.78 237c-.8-.3-5.6-30.1-6.7-37.9-4.7-34.8-14.6-83.9 19-109 16.3-12.2 40.4-10.5 57.2-.2 19.8 12.1 25.5 35.3 22.3 57.3-.1.5-.1 1-.2 1.5a3.55 3.55 0 0 1-.2 1c17.7-10.6 43.3-7.9 59.1 6.2a44.91 44.91 0 0 1 13.9 43.6c-4 18.4-16.4 32.4-33.9 39.3-30.2 11.9-65.9 9-97.3 4.5-10.8-1.6-22.8-2.7-33.2-6.3M88.58 37.3c0 20.6-18 37.3-40.3 37.3S8 57.9 8 37.3 26 0 48.28 0s40.3 16.7 40.3 37.3"/><path class="rb4-logo-1" d="M123.88 171.1a1.85 1.85 0 0 0-1.2-.7c-.7-.1-16.5-2.1-38.4 8.6-21.9-10.7-37.8-8.7-38.4-8.6a1.85 1.85 0 0 0-1.2.7 1.52 1.52 0 0 0-.3 1.3l4.7 35.1a2 2 0 0 0 .9 1.3 211.6 211.6 0 0 0 33.8 15.6 1.09 1.09 0 0 0 .5.1.75.75 0 0 0 .5-.1 211.6 211.6 0 0 0 33.8-15.6 1.76 1.76 0 0 0 .9-1.3l4.7-35.1a1.59 1.59 0 0 0-.3-1.3z"/><path class="rb4-logo-2" d="M286.58 236v-18.9l19.5-30.1a1.86 1.86 0 0 0 .1-1.9 1.7 1.7 0 0 0-1.6-.9H293a1.65 1.65 0 0 0-1.5.9l-11.7 18.8-11.92-18.9a1.76 1.76 0 0 0-1.5-.8H254a1.89 1.89 0 0 0-1.6.9 1.86 1.86 0 0 0 .1 1.9l19.4 30.1V236a1.79 1.79 0 0 0 1.8 1.8h11a1.88 1.88 0 0 0 1.88-1.8zM252.28 220.9c0-5.5-3.7-10.2-9.1-12.4a12.36 12.36 0 0 0 5.5-10.1c0-14.3-17-14.3-22.6-14.3h-18.2a1.79 1.79 0 0 0-1.8 1.8v50a1.79 1.79 0 0 0 1.8 1.8h20.5c15.9.1 23.9-5.6 23.9-16.8zm-31.6-17.2v-7h6.4c6.8 0 6.8 2.3 6.8 3.4q0 3.6-6 3.6zm0 12.4h9.1c3.5 0 7.7.8 7.7 4.5 0 3.9-4.8 4.5-7.7 4.5h-9.1zM392.68 211.4v-22h8.2a1.79 1.79 0 0 0 1.8-1.8v-5.3a1.79 1.79 0 0 0-1.8-1.8h-26.5a1.79 1.79 0 0 0-1.8 1.8v5.3a1.79 1.79 0 0 0 1.8 1.8h8.2v22a1.79 1.79 0 0 0 1.8 1.8h6.5a1.86 1.86 0 0 0 1.8-1.8zM430.88 180.4h-6.5a1.79 1.79 0 0 0-1.8 1.8v9.8h-8v-9.8a1.79 1.79 0 0 0-1.8-1.8h-6.4a1.79 1.79 0 0 0-1.8 1.8v29.2a1.79 1.79 0 0 0 1.8 1.8h6.4a1.79 1.79 0 0 0 1.8-1.8V201h8v10.4a1.79 1.79 0 0 0 1.8 1.8h6.5a1.79 1.79 0 0 0 1.8-1.8v-29.2a1.79 1.79 0 0 0-1.8-1.8zM362.78 236v-9.8h5.6a1.79 1.79 0 0 0 1.8-1.8v-7.5a1.79 1.79 0 0 0-1.8-1.8h-5.6v-31.2a1.79 1.79 0 0 0-1.8-1.8h-7.8a2 2 0 0 0-1.4.6l-28.8 34a2 2 0 0 0-.4 1.6l1.7 6.5a1.83 1.83 0 0 0 1.8 1.4h24.3v9.8a1.79 1.79 0 0 0 1.8 1.8h8.7a1.82 1.82 0 0 0 1.9-1.8zm-23.7-20.9l11.3-13.6v13.6zM352.18 164.2H368a1.74 1.74 0 0 0 1.7-1.2l5.6-14.3h30.6l5.7 14.3a2 2 0 0 0 1.7 1.2H430a2.09 2.09 0 0 0 1.6-.8 2.25 2.25 0 0 0 .2-1.8L402 88.9a2 2 0 0 0-1.7-1.2H382a1.84 1.84 0 0 0-1.7 1.2l-29.8 72.7a1.94 1.94 0 0 0 .2 1.8 1.76 1.76 0 0 0 1.48.8zm29.6-32.4l8.7-22.5 8.8 22.5zM516.88 125c0-24.1-16-37.3-45.1-37.3h-27.6a1.9 1.9 0 0 0-1.9 1.9v72.7a1.9 1.9 0 0 0 1.9 1.9h26.7c30.5 0 46-13.2 46-39.2zm-54.8-20.5h8.2c18 0 26.1 6.4 26.1 20.8 0 16.1-6.9 21.9-26.3 21.9h-8zM287.68 164.2h52.8a1.9 1.9 0 0 0 1.9-1.9V149a1.9 1.9 0 0 0-1.9-1.9h-34.9v-13.5h29.8a1.9 1.9 0 0 0 1.9-1.9v-13.3a1.9 1.9 0 0 0-1.9-1.9h-29.8v-11.8H340a1.9 1.9 0 0 0 1.9-1.9V89.5a1.9 1.9 0 0 0-1.9-1.9h-52.3a1.9 1.9 0 0 0-1.9 1.9v72.7a2.06 2.06 0 0 0 1.88 2zM208 164.2h16a1.9 1.9 0 0 0 1.9-1.9v-25.6h9.7l18.7 26.7a1.9 1.9 0 0 0 1.5.8h18.3a2.06 2.06 0 0 0 1.7-1 1.84 1.84 0 0 0-.1-1.9l-21.4-30.6c9.8-4.4 15.5-11.9 15.5-20.5 0-14.9-11.1-22.4-33-22.4h-28.7a1.9 1.9 0 0 0-1.9 1.9v72.7a1.79 1.79 0 0 0 1.8 1.8zm41.8-52.3c0 6.8-7 8.2-12.8 8.2h-11v-15.5h11c11.38 0 12.78 4.2 12.78 7.3z"/></symbol><symbol id="icon-map-marker-book-nook-venues" viewBox="0 0 28.6 40"><title>map-marker-book-nook-venues</title><path class="cls-1" d="M15 1A14.3 14.3 0 0 0 .7 15.3C.7 24.5 12.6 41 15 41s14.3-16.5 14.3-25.7A14.3 14.3 0 0 0 15 1zm0 22.3a8.1 8.1 0 1 1 8.1-8.1 8.07 8.07 0 0 1-8.1 8.1z" transform="translate(-.7 -1)"/></symbol><symbol id="icon-map-marker-camps" viewBox="0 0 28.6 40"><title>map-marker-camps</title><path class="cls-1" d="M15 1A14.3 14.3 0 0 0 .7 15.3C.7 24.5 12.6 41 15 41s14.3-16.5 14.3-25.7A14.3 14.3 0 0 0 15 1zm0 22.3a8.1 8.1 0 1 1 8.1-8.1 8.07 8.07 0 0 1-8.1 8.1z" transform="translate(-.7 -1)"/></symbol><symbol id="icon-map-marker-default" viewBox="0 0 28.6 40"><title>map-marker-default</title><path class="cls-1" d="M15 1A14.3 14.3 0 0 0 .7 15.3C.7 24.5 12.6 41 15 41s14.3-16.5 14.3-25.7A14.3 14.3 0 0 0 15 1zm0 22.3a8.1 8.1 0 1 1 8.1-8.1 8.07 8.07 0 0 1-8.1 8.1z" transform="translate(-.7 -1)"/></symbol><symbol id="icon-map-marker-libraries" viewBox="0 0 28.6 40"><title>map-marker-libraries</title><path class="cls-1" d="M15 1A14.3 14.3 0 0 0 .7 15.3C.7 24.5 12.6 41 15 41s14.3-16.5 14.3-25.7A14.3 14.3 0 0 0 15 1zm0 22.3a8.1 8.1 0 1 1 8.1-8.1 8.07 8.07 0 0 1-8.1 8.1z" transform="translate(-.7 -1)"/></symbol><symbol id="icon-map-marker-literacy-enriched-ost" viewBox="0 0 28.6 40"><title>map-marker-literacy-enriched-ost</title><path class="cls-1" d="M15 1A14.3 14.3 0 0 0 .7 15.3C.7 24.5 12.6 41 15 41s14.3-16.5 14.3-25.7A14.3 14.3 0 0 0 15 1zm0 22.3a8.1 8.1 0 1 1 8.1-8.1 8.07 8.07 0 0 1-8.1 8.1z" transform="translate(-.7 -1)"/></symbol><symbol id="icon-twitter-square" viewBox="0 0 34.2 27.7"><title>Artboard 1</title><path class="cls-1" d="M34.2 3.3a13.16 13.16 0 0 1-4 1.1A7.11 7.11 0 0 0 33.3.5a14.43 14.43 0 0 1-4.5 1.7A6.73 6.73 0 0 0 23.6 0a6.88 6.88 0 0 0-5 2.1 6.72 6.72 0 0 0-2.1 5 7 7 0 0 0 .2 1.6 20.35 20.35 0 0 1-8.1-2.2 20.1 20.1 0 0 1-6.4-5.2 7.42 7.42 0 0 0-1 3.5 6.54 6.54 0 0 0 3 5.8 7.14 7.14 0 0 1-3.3-.9v.1a6.81 6.81 0 0 0 1.7 4.5 7 7 0 0 0 4.1 2.4 4.53 4.53 0 0 1-1.6.3 7.17 7.17 0 0 1-1.3-.1 7.33 7.33 0 0 0 2.5 3.5 6.56 6.56 0 0 0 4.1 1.4 13.92 13.92 0 0 1-8.7 3 9.7 9.7 0 0 1-1.7-.1 19.59 19.59 0 0 0 10.7 3.1 20.19 20.19 0 0 0 7-1.2 17.08 17.08 0 0 0 5.6-3.2 17.69 17.69 0 0 0 4-4.6 18.9 18.9 0 0 0 2.5-5.4 22.26 22.26 0 0 0 .8-5.6v-.9a13.69 13.69 0 0 0 3.6-3.6z"/></symbol></svg>