<svg id="mobile" xmlns="http://www.w3.org/2000/svg" viewBox="0 0 516.88 247.21"><defs><style>.rb4-logo-1{fill:#45c1cb;}.rb4-logo-2{fill:#63469b;}</style></defs><title>Artboard 1</title><path class="rb4-logo-1" d="M177.18,110.8c0,15.2-13.3,27.5-29.7,27.5s-29.7-12.3-29.7-27.5,13.3-27.5,29.7-27.5,29.7,12.3,29.7,27.5"/><path class="rb4-logo-2" d="M11.78,237c-.8-.3-5.6-30.1-6.7-37.9-4.7-34.8-14.6-83.9,19-109,16.3-12.2,40.4-10.5,57.2-.2,19.8,12.1,25.5,35.3,22.3,57.3-.1.5-.1,1-.2,1.5a3.55,3.55,0,0,1-.2,1c17.7-10.6,43.3-7.9,59.1,6.2a44.91,44.91,0,0,1,13.9,43.6c-4,18.4-16.4,32.4-33.9,39.3-30.2,11.9-65.9,9-97.3,4.5-10.8-1.6-22.8-2.7-33.2-6.3"/><path class="rb4-logo-2" d="M88.58,37.3c0,20.6-18,37.3-40.3,37.3S8,57.9,8,37.3,26,0,48.28,0s40.3,16.7,40.3,37.3"/><path class="rb4-logo-1" d="M123.88,171.1a1.85,1.85,0,0,0-1.2-.7c-.7-.1-16.5-2.1-38.4,8.6-21.9-10.7-37.8-8.7-38.4-8.6a1.85,1.85,0,0,0-1.2.7,1.52,1.52,0,0,0-.3,1.3l4.7,35.1a2,2,0,0,0,.9,1.3,211.6,211.6,0,0,0,33.8,15.6,1.09,1.09,0,0,0,.5.1.75.75,0,0,0,.5-.1,211.6,211.6,0,0,0,33.8-15.6,1.76,1.76,0,0,0,.9-1.3l4.7-35.1A1.59,1.59,0,0,0,123.88,171.1Z"/><path class="rb4-logo-2" d="M286.58,236V217.1l19.5-30.1a1.86,1.86,0,0,0,.1-1.9,1.7,1.7,0,0,0-1.6-.9H293a1.65,1.65,0,0,0-1.5.9l-11.7,18.8L267.88,185a1.76,1.76,0,0,0-1.5-.8H254a1.89,1.89,0,0,0-1.6.9,1.86,1.86,0,0,0,.1,1.9l19.4,30.1V236a1.79,1.79,0,0,0,1.8,1.8h11A1.88,1.88,0,0,0,286.58,236Z"/><path class="rb4-logo-2" d="M252.28,220.9c0-5.5-3.7-10.2-9.1-12.4a12.36,12.36,0,0,0,5.5-10.1c0-14.3-17-14.3-22.6-14.3h-18.2a1.79,1.79,0,0,0-1.8,1.8v50a1.79,1.79,0,0,0,1.8,1.8h20.5C244.28,237.8,252.28,232.1,252.28,220.9Zm-31.6-17.2v-7h6.4c6.8,0,6.8,2.3,6.8,3.4q0,3.6-6,3.6Zm0,12.4h9.1c3.5,0,7.7.8,7.7,4.5,0,3.9-4.8,4.5-7.7,4.5h-9.1Z"/><path class="rb4-logo-2" d="M392.68,211.4v-22h8.2a1.79,1.79,0,0,0,1.8-1.8v-5.3a1.79,1.79,0,0,0-1.8-1.8h-26.5a1.79,1.79,0,0,0-1.8,1.8v5.3a1.79,1.79,0,0,0,1.8,1.8h8.2v22a1.79,1.79,0,0,0,1.8,1.8h6.5A1.86,1.86,0,0,0,392.68,211.4Z"/><path class="rb4-logo-2" d="M430.88,180.4h-6.5a1.79,1.79,0,0,0-1.8,1.8V192h-8v-9.8a1.79,1.79,0,0,0-1.8-1.8h-6.4a1.79,1.79,0,0,0-1.8,1.8v29.2a1.79,1.79,0,0,0,1.8,1.8h6.4a1.79,1.79,0,0,0,1.8-1.8V201h8v10.4a1.79,1.79,0,0,0,1.8,1.8h6.5a1.79,1.79,0,0,0,1.8-1.8V182.2A1.79,1.79,0,0,0,430.88,180.4Z"/><path class="rb4-logo-2" d="M362.78,236v-9.8h5.6a1.79,1.79,0,0,0,1.8-1.8v-7.5a1.79,1.79,0,0,0-1.8-1.8h-5.6V183.9a1.79,1.79,0,0,0-1.8-1.8h-7.8a2,2,0,0,0-1.4.6l-28.8,34a2,2,0,0,0-.4,1.6l1.7,6.5a1.83,1.83,0,0,0,1.8,1.4h24.3V236a1.79,1.79,0,0,0,1.8,1.8h8.7A1.82,1.82,0,0,0,362.78,236Zm-23.7-20.9,11.3-13.6v13.6Z"/><path class="rb4-logo-2" d="M352.18,164.2H368a1.74,1.74,0,0,0,1.7-1.2l5.6-14.3h30.6l5.7,14.3a2,2,0,0,0,1.7,1.2H430a2.09,2.09,0,0,0,1.6-.8,2.25,2.25,0,0,0,.2-1.8L402,88.9a2,2,0,0,0-1.7-1.2H382a1.84,1.84,0,0,0-1.7,1.2l-29.8,72.7a1.94,1.94,0,0,0,.2,1.8A1.76,1.76,0,0,0,352.18,164.2Zm29.6-32.4,8.7-22.5,8.8,22.5Z"/><path class="rb4-logo-2" d="M516.88,125c0-24.1-16-37.3-45.1-37.3h-27.6a1.9,1.9,0,0,0-1.9,1.9v72.7a1.9,1.9,0,0,0,1.9,1.9h26.7C501.38,164.2,516.88,151,516.88,125Zm-54.8-20.5h8.2c18,0,26.1,6.4,26.1,20.8,0,16.1-6.9,21.9-26.3,21.9h-8Z"/><path class="rb4-logo-2" d="M287.68,164.2h52.8a1.9,1.9,0,0,0,1.9-1.9V149a1.9,1.9,0,0,0-1.9-1.9h-34.9V133.6h29.8a1.9,1.9,0,0,0,1.9-1.9V118.4a1.9,1.9,0,0,0-1.9-1.9h-29.8V104.7H340a1.9,1.9,0,0,0,1.9-1.9V89.5a1.9,1.9,0,0,0-1.9-1.9h-52.3a1.9,1.9,0,0,0-1.9,1.9v72.7A2.06,2.06,0,0,0,287.68,164.2Z"/><path class="rb4-logo-2" d="M208,164.2h16a1.9,1.9,0,0,0,1.9-1.9V136.7h9.7l18.7,26.7a1.9,1.9,0,0,0,1.5.8h18.3a2.06,2.06,0,0,0,1.7-1,1.84,1.84,0,0,0-.1-1.9l-21.4-30.6c9.8-4.4,15.5-11.9,15.5-20.5,0-14.9-11.1-22.4-33-22.4h-28.7a1.9,1.9,0,0,0-1.9,1.9v72.7A1.79,1.79,0,0,0,208,164.2Zm41.8-52.3c0,6.8-7,8.2-12.8,8.2H226V104.6h11C248.38,104.6,249.78,108.8,249.78,111.9Z"/></svg>