<svg id="Layer_1" data-name="Layer 1" xmlns="http://www.w3.org/2000/svg" viewBox="0 0 34.2 27.7"><defs></defs><title>Artboard 1</title><path class="cls-1" d="M34.2,3.3a13.16,13.16,0,0,1-4,1.1A7.11,7.11,0,0,0,33.3.5a14.43,14.43,0,0,1-4.5,1.7A6.73,6.73,0,0,0,23.6,0a6.88,6.88,0,0,0-5,2.1,6.72,6.72,0,0,0-2.1,5,7,7,0,0,0,.2,1.6A20.35,20.35,0,0,1,8.6,6.5,20.1,20.1,0,0,1,2.2,1.3a7.42,7.42,0,0,0-1,3.5,6.54,6.54,0,0,0,3,5.8A7.14,7.14,0,0,1,.9,9.7v.1a6.81,6.81,0,0,0,1.7,4.5,7,7,0,0,0,4.1,2.4,4.53,4.53,0,0,1-1.6.3,7.17,7.17,0,0,1-1.3-.1,7.33,7.33,0,0,0,2.5,3.5,6.56,6.56,0,0,0,4.1,1.4,13.92,13.92,0,0,1-8.7,3A9.7,9.7,0,0,1,0,24.7a19.59,19.59,0,0,0,10.7,3.1,20.19,20.19,0,0,0,7-1.2,17.08,17.08,0,0,0,5.6-3.2,17.69,17.69,0,0,0,4-4.6,18.9,18.9,0,0,0,2.5-5.4,22.26,22.26,0,0,0,.8-5.6V6.9a13.69,13.69,0,0,0,3.6-3.6Z"/></svg>